<?xml version="1.0" encoding="UTF-8" standalone="no"?>
<svg width="28px" height="67px" viewBox="0 0 28 67" version="1.1" xmlns="http://www.w3.org/2000/svg" xmlns:xlink="http://www.w3.org/1999/xlink">
    <!-- Generator: Sketch 3.8.3 (29802) - http://www.bohemiancoding.com/sketch -->
    <title>Slice 1</title>
    <desc>Created with Sketch.</desc>
    <defs></defs>
    <g id="Page-1" stroke="none" stroke-width="1" fill="none" fill-rule="evenodd">
        <g id="ico-swallow-blue" transform="translate(0.000000, 40.000000)" fill="#91A1B4">
            <g id="Page-1">
                <g id="ico-swallow">
                    <path d="M24.3521238,15.5440028 C24.0734448,15.5695069 23.8700341,15.8466307 23.8992705,16.1610776 C23.9285069,16.4749024 24.1782604,16.7100378 24.4572504,16.6839116 C24.7368624,16.6580965 24.9402732,16.3815947 24.9104147,16.0680809 C24.8811783,15.7527009 24.6314248,15.5181876 24.3521238,15.5440028" id="Fill-3"></path>
                    <g id="Group-7" transform="translate(0.000000, 0.188326)">
                        <path d="M25.3514491,15.8657588 C25.350827,15.8750895 25.3498939,15.8794439 25.3492719,15.8819321 C25.1629675,17.6949004 21.4993968,18.0099693 20.3187436,17.7116958 C20.7743961,16.050508 24.1353389,13.6325948 25.3467837,15.7674747 C25.3411852,15.7988882 25.3427403,15.8334121 25.3514491,15.8657588 M27.0518261,15.5488237 L26.406759,15.4710672 C25.5274896,14.2708194 24.0768661,13.2310608 22.2579883,12.6883211 C22.8968349,9.05305368 20.1871798,6.26968545 17.6025569,4.65608456 C14.5768997,2.76660395 9.32181091,0.453506449 5.82277274,0.124752374 C4.44492927,0.0597480207 8.10849999,1.54147405 10.5394762,3.3245839 C11.7695825,4.22718024 12.1188643,4.54815867 13.1940798,5.39694758 C14.3212367,6.28585878 15.8751206,7.63135559 15.5575635,9.19830264 C15.2552466,10.6909146 13.7884498,11.0501492 12.4942722,10.9238728 C9.69659678,10.6501702 5.72106737,8.53177475 3.13924374,7.4310551 C-0.299766488,5.96519137 5.98606119,10.57428 6.39785911,11.4171594 C5.66819301,11.7387599 0.0535586109,10.210691 6.22051229e-05,11.2859066 C-0.0245088185,11.7829255 9.24063323,14.934237 10.2813249,15.4020196 C11.2940243,15.856739 12.9853816,16.6206179 13.1436937,18.3315698 C13.3511478,20.5746866 11.7303933,22.134169 9.92644471,22.8028741 C8.08641717,23.4849532 6.42865064,23.7499471 4.49220516,24.0603506 C3.84464983,24.1648552 -0.766615936,24.7293667 1.61770643,25.0453688 C1.54896977,25.036038 7.59997311,25.9644494 11.096212,25.2055469 C14.2752049,24.5150701 16.5581329,22.8999141 18.7760565,20.3022281 C19.7203303,19.1971541 19.7844016,19.0659013 21.0266379,19.0590587 C22.0555106,19.0525272 23.0977575,18.8584472 24.0709566,18.5063662 C25.1337311,18.1210055 26.1489187,17.3182484 26.4275977,16.4044551 L26.9818453,16.4719477 C27.0079715,16.4747469 27.0340976,16.4750579 27.0596017,16.4725697 C27.2521266,16.4545302 27.4104386,16.2843992 27.427234,16.0592167 C27.4465176,15.8044867 27.2788748,15.5755719 27.0518261,15.5488237" id="Fill-5"></path>
                    </g>
                </g>
            </g>
        </g>
        <g id="ico-swallow" fill="#FFFFFF">
            <g id="Page-1">
                <g id="ico-swallow">
                    <path d="M24.3521238,15.5440028 C24.0734448,15.5695069 23.8700341,15.8466307 23.8992705,16.1610776 C23.9285069,16.4749024 24.1782604,16.7100378 24.4572504,16.6839116 C24.7368624,16.6580965 24.9402732,16.3815947 24.9104147,16.0680809 C24.8811783,15.7527009 24.6314248,15.5181876 24.3521238,15.5440028" id="Fill-3"></path>
                    <g id="Group-7" transform="translate(0.000000, 0.188326)">
                        <path d="M25.3514491,15.8657588 C25.350827,15.8750895 25.3498939,15.8794439 25.3492719,15.8819321 C25.1629675,17.6949004 21.4993968,18.0099693 20.3187436,17.7116958 C20.7743961,16.050508 24.1353389,13.6325948 25.3467837,15.7674747 C25.3411852,15.7988882 25.3427403,15.8334121 25.3514491,15.8657588 M27.0518261,15.5488237 L26.406759,15.4710672 C25.5274896,14.2708194 24.0768661,13.2310608 22.2579883,12.6883211 C22.8968349,9.05305368 20.1871798,6.26968545 17.6025569,4.65608456 C14.5768997,2.76660395 9.32181091,0.453506449 5.82277274,0.124752374 C4.44492927,0.0597480207 8.10849999,1.54147405 10.5394762,3.3245839 C11.7695825,4.22718024 12.1188643,4.54815867 13.1940798,5.39694758 C14.3212367,6.28585878 15.8751206,7.63135559 15.5575635,9.19830264 C15.2552466,10.6909146 13.7884498,11.0501492 12.4942722,10.9238728 C9.69659678,10.6501702 5.72106737,8.53177475 3.13924374,7.4310551 C-0.299766488,5.96519137 5.98606119,10.57428 6.39785911,11.4171594 C5.66819301,11.7387599 0.0535586109,10.210691 6.22051229e-05,11.2859066 C-0.0245088185,11.7829255 9.24063323,14.934237 10.2813249,15.4020196 C11.2940243,15.856739 12.9853816,16.6206179 13.1436937,18.3315698 C13.3511478,20.5746866 11.7303933,22.134169 9.92644471,22.8028741 C8.08641717,23.4849532 6.42865064,23.7499471 4.49220516,24.0603506 C3.84464983,24.1648552 -0.766615936,24.7293667 1.61770643,25.0453688 C1.54896977,25.036038 7.59997311,25.9644494 11.096212,25.2055469 C14.2752049,24.5150701 16.5581329,22.8999141 18.7760565,20.3022281 C19.7203303,19.1971541 19.7844016,19.0659013 21.0266379,19.0590587 C22.0555106,19.0525272 23.0977575,18.8584472 24.0709566,18.5063662 C25.1337311,18.1210055 26.1489187,17.3182484 26.4275977,16.4044551 L26.9818453,16.4719477 C27.0079715,16.4747469 27.0340976,16.4750579 27.0596017,16.4725697 C27.2521266,16.4545302 27.4104386,16.2843992 27.427234,16.0592167 C27.4465176,15.8044867 27.2788748,15.5755719 27.0518261,15.5488237" id="Fill-5"></path>
                    </g>
                </g>
            </g>
        </g>
    </g>
</svg>