<svg width="28" height="67" viewBox="0 0 28 67" xmlns="http://www.w3.org/2000/svg"><title>Slice 1</title><g fill="none" fill-rule="evenodd"><g fill="#91A1B4"><path d="M24.352 55.544c-.279.026-.482.303-.453.617.03.314.28.549.558.523.28-.026.483-.302.453-.616-.029-.315-.279-.55-.558-.524"/><path d="M25.351 56.054c0 .01-.001.014-.002.016-.186 1.813-3.85 2.128-5.03 1.83.455-1.661 3.816-4.08 5.028-1.944a.23.23 0 0 0 .004.098m1.7-.317l-.644-.078c-.88-1.2-2.33-2.24-4.149-2.782.639-3.636-2.07-6.419-4.655-8.033-3.026-1.89-8.281-4.202-11.78-4.53-1.378-.066 2.285 1.416 4.716 3.199 1.23.903 1.58 1.223 2.655 2.072 1.127.89 2.681 2.235 2.364 3.802-.303 1.492-1.77 1.851-3.064 1.725-2.797-.274-6.773-2.392-9.355-3.493-3.439-1.465 2.847 3.144 3.259 3.986-.73.322-6.344-1.206-6.398-.13-.025.496 9.24 3.648 10.281 4.115 1.013.455 2.704 1.219 2.863 2.93.207 2.243-1.414 3.802-3.218 4.471-1.84.682-3.497.947-5.434 1.258-.647.104-5.259.669-2.874.985-.069-.01 5.982.919 9.478.16 3.18-.69 5.462-2.306 7.68-4.903.944-1.106 1.008-1.237 2.25-1.244a9.185 9.185 0 0 0 3.045-.552c1.063-.386 2.078-1.188 2.357-2.102l.554.067a.383.383 0 0 0 .078 0c.192-.017.35-.187.367-.412.02-.255-.148-.484-.375-.51"/></g><g fill="#FFF"><path d="M24.352 15.544c-.279.026-.482.303-.453.617.03.314.28.549.558.523.28-.026.483-.302.453-.616-.029-.315-.279-.55-.558-.524"/><path d="M25.351 16.054c0 .01-.001.014-.002.016-.186 1.813-3.85 2.128-5.03 1.83.455-1.661 3.816-4.08 5.028-1.944a.23.23 0 0 0 .004.098m1.7-.317l-.644-.078c-.88-1.2-2.33-2.24-4.149-2.782.639-3.636-2.07-6.419-4.655-8.033C14.577 2.954 9.322.642 5.823.314 4.445.247 8.108 1.73 10.539 3.512c1.23.903 1.58 1.223 2.655 2.072 1.127.89 2.681 2.235 2.364 3.802-.303 1.492-1.77 1.851-3.064 1.725C9.697 10.838 5.721 8.72 3.14 7.62-.3 6.154 5.986 10.763 6.398 11.605c-.73.322-6.344-1.206-6.398-.13-.025.496 9.24 3.648 10.281 4.115 1.013.455 2.704 1.219 2.863 2.93.207 2.243-1.414 3.802-3.218 4.471-1.84.682-3.497.947-5.434 1.258-.647.104-5.259.669-2.874.985-.069-.01 5.982.919 9.478.16 3.18-.69 5.462-2.306 7.68-4.903.944-1.106 1.008-1.237 2.25-1.244a9.185 9.185 0 0 0 3.045-.552c1.063-.386 2.078-1.188 2.357-2.102l.554.067a.383.383 0 0 0 .078 0c.192-.017.35-.187.367-.412.02-.255-.148-.484-.375-.51"/></g></g></svg>